<svg xmlns="http://www.w3.org/2000/svg" width="243" height="60" viewBox="0 0 243 60" fill="none"><mask id="mask0_219_10235" style="mask-type:luminance" maskUnits="userSpaceOnUse" x="0" y="0" width="243" height="60"><path d="M242.998 0H0V60H242.998V0Z" fill="white"></path></mask><g mask="url(#mask0_219_10235)"><path d="M49.2445 20.2146H39.6331V10.4511C39.6331 5.07787 35.3041 0.678711 30.0158 0.678711C24.7274 0.678711 20.3984 5.07495 20.3984 10.4511V20.2234H39.6272V29.987C39.6272 35.3601 43.9562 39.7593 49.2445 39.7593C54.5329 39.7593 58.8618 35.3631 58.8618 29.987C58.8618 24.6109 54.5329 20.2146 49.2445 20.2146Z" fill="url(#paint0_linear_219_10235)"></path><path d="M81.5117 29.4895C81.5117 23.818 86.139 19.1497 91.8106 19.1907C94.7034 19.1907 97.4177 20.2437 99.3131 22.4725C100.094 23.391 99.8455 24.792 98.7954 25.3829L98.7808 25.3916C98.0056 25.8275 97.0199 25.6783 96.432 25.0085C95.2591 23.6718 93.6474 22.9727 91.8106 22.9727C88.3503 22.9727 85.4955 25.9094 85.4955 29.4895C85.4955 33.0697 88.3532 36.0883 91.8106 36.0883C93.6533 36.0883 95.2708 35.3863 96.4437 34.0408C97.0229 33.3739 98.0027 33.2247 98.7778 33.6488C99.8396 34.2309 100.097 35.6408 99.3131 36.565C97.4148 38.8027 94.7034 39.8703 91.8106 39.8703C86.139 39.9522 81.5117 35.2049 81.5117 29.4895Z" fill="#121212"></path><path d="M109.429 10.6201V39.8669H105.445V10.6201H109.429Z" fill="#121212"></path><path d="M114.66 29.4072C114.66 23.7357 118.723 19.1084 124.637 19.1084C130.552 19.1084 134.293 23.414 134.293 28.9246V30.5333H118.521C118.963 33.9117 121.54 36.2868 125.079 36.2868C127.042 36.2868 128.843 35.5965 130.075 34.172C130.598 33.5665 131.47 33.394 132.184 33.7625C133.172 34.2685 133.436 35.5585 132.734 36.4184C130.908 38.6502 128.238 39.8699 125.12 39.8699C119.127 39.8699 114.66 35.4853 114.66 29.4102V29.4072ZM130.312 27.9594C130.151 24.8209 127.858 22.6886 124.599 22.6886C121.341 22.6886 119.089 25.0227 118.685 27.9594H130.312Z" fill="#121212"></path><path d="M137.793 29.4893C137.793 23.8558 142.297 19.1904 148.294 19.1904C154.29 19.1904 158.794 23.6159 158.794 29.4893V39.87H155.012V35.9271C153.523 38.3402 150.909 39.87 147.691 39.87C141.979 39.87 137.793 35.2047 137.793 29.4893ZM154.81 29.5302C154.81 25.9091 151.994 22.9315 148.294 22.9315C144.594 22.9315 141.777 25.9091 141.777 29.5302C141.777 33.1513 144.634 36.088 148.294 36.088C151.953 36.088 154.81 33.1104 154.81 29.5302Z" fill="#121212"></path><path d="M164.507 39.8672V27.6379C164.507 22.8497 167.242 19.2695 172.393 19.2695C173.639 19.2695 174.929 19.5123 175.932 19.9949V23.9378C174.967 23.3733 173.84 23.0925 172.752 23.0925C170.096 23.0925 168.488 24.903 168.488 27.7988V39.8672H164.504H164.507Z" fill="#121212"></path><path d="M176.508 37.2375C176.508 35.7897 177.675 34.6636 179.123 34.6636C180.571 34.6636 181.738 35.7897 181.738 37.2375C181.738 38.6854 180.571 39.8525 179.123 39.8525C177.675 39.8525 176.508 38.6854 176.508 37.2375Z" fill="#F87369"></path><path d="M186.512 29.5681V10.6201H190.496V22.127C192.104 20.3574 194.517 19.1903 197.173 19.1903C203.167 19.1903 207.472 23.5748 207.472 29.571C207.472 35.2426 202.968 39.8699 197.012 39.8699C191.057 39.8699 186.512 35.4034 186.512 29.571V29.5681ZM203.488 29.5301C203.488 25.9499 200.672 22.9723 197.012 22.9723C193.353 22.9723 190.496 25.9499 190.496 29.5301C190.496 33.1102 193.312 36.1288 197.012 36.1288C200.712 36.1288 203.488 33.1512 203.488 29.5301Z" fill="#121212"></path><path d="M212.153 13.4193C211.998 11.8194 213.277 10.4388 214.862 10.5031C216.184 10.5587 217.237 11.6527 217.322 12.9718C217.424 14.5308 216.222 15.8149 214.672 15.7681C213.373 15.7301 212.276 14.7093 212.15 13.4164L212.153 13.4193ZM216.766 21.6648V39.8699H212.782V21.6648C212.782 20.5651 213.674 19.6729 214.774 19.6729C215.874 19.6729 216.766 20.5651 216.766 21.6648Z" fill="#121212"></path><path d="M221.996 29.4893C221.996 23.8177 226.623 19.1904 232.538 19.1904C238.452 19.1904 242.997 23.8558 242.997 29.4893C242.997 35.1228 238.452 39.87 232.538 39.87C226.623 39.87 221.996 35.2047 221.996 29.4893ZM239.014 29.5302C239.014 25.9091 236.197 22.9315 232.538 22.9315C228.879 22.9315 225.98 25.9091 225.98 29.5302C225.98 33.1513 228.838 36.088 232.538 36.088C236.238 36.088 239.014 33.1104 239.014 29.5302Z" fill="#121212"></path><path d="M29.9985 60C24.0667 60 19.2405 55.1738 19.2405 49.2419V40.7566H10.7551C4.82621 40.7566 0 35.9304 0 29.9985C0 24.0667 4.82621 19.2405 10.7581 19.2405H19.2434V10.7551C19.2434 4.82621 24.0667 0 29.9985 0C35.9304 0 40.7566 4.82621 40.7566 10.7581V19.2434H49.2419C55.1738 19.2434 60 24.0696 60 30.0015C60 35.9333 55.1738 40.7595 49.2419 40.7595C43.3101 40.7595 38.4839 35.9333 38.4839 30.0015V21.5161H21.5161V38.4839H30.0015C35.9333 38.4839 40.7595 43.3101 40.7595 49.2419C40.7595 55.1738 35.9333 60 30.0015 60H29.9985ZM21.5161 40.7566V49.2419C21.5161 53.9219 25.3215 57.7273 29.9985 57.7273C34.6756 57.7273 38.4839 53.9219 38.4839 49.2419C38.4839 44.562 34.6785 40.7566 30.0015 40.7566H21.5161ZM40.7566 21.5161V30.0015C40.7566 34.6785 44.562 38.4839 49.2419 38.4839C53.9219 38.4839 57.7273 34.6785 57.7273 30.0015C57.7273 25.3244 53.9219 21.5161 49.2419 21.5161H40.7566ZM10.7581 21.5161C6.0781 21.5161 2.27271 25.3215 2.27271 30.0015C2.27271 34.6814 6.0781 38.4839 10.7581 38.4839H19.2434V21.5161H10.7581ZM21.5161 19.2434H38.4839V10.7581C38.4839 6.0781 34.6785 2.27271 30.0015 2.27271C25.3244 2.27271 21.5161 6.0781 21.5161 10.7581V19.2434Z" fill="#121212"></path></g><defs><linearGradient id="paint0_linear_219_10235" x1="23.107" y1="6.38826" x2="53.1201" y2="36.4014" gradientUnits="userSpaceOnUse"><stop stop-color="#F5C3A9"></stop><stop offset="0.5" stop-color="#B5B8DD"></stop><stop offset="0.51" stop-color="#BAB9D8"></stop><stop offset="1" stop-color="#FFFAEC"></stop></linearGradient></defs></svg>