<svg xmlns="http://www.w3.org/2000/svg" width="154" height="45" viewBox="0 0 154 45" fill="none"><path d="M16.355 1.0703C18.8469 -0.356766 21.917 -0.356766 24.4088 1.0703L36.737 8.1305C39.2288 9.55756 40.7639 12.1949 40.7639 15.049V29.1694C40.7639 32.0235 39.2288 34.6609 36.737 36.0879L24.4088 43.1481C21.917 44.5752 18.8469 44.5752 16.355 43.1481L4.02691 36.0879C1.53505 34.6609 0 32.0235 0 29.1694V15.049C0 12.1949 1.53505 9.55756 4.02691 8.1305L16.355 1.0703Z" fill="url(#paint0_linear_2315_698)"></path><path d="M19.8273 16.9651C20.0904 17.1257 20.2508 17.4116 20.2508 17.7198V31.4439C20.2508 31.7617 20.0803 32.055 19.8042 32.2123L15.3239 34.7647C14.7344 35.1006 14.0018 34.6748 14.0018 33.9963V20.6847L10.4933 18.761C10.2102 18.6057 10.0342 18.3084 10.0342 17.9855V13.2912C10.0342 12.9716 10.2067 12.6768 10.4854 12.5202L15.844 9.50988C16.1163 9.35695 16.449 9.35891 16.7194 9.51503L29.6285 16.9684C29.9021 17.1263 30.0707 17.4183 30.0707 17.7342V22.5961C30.0707 22.9124 29.9016 23.2047 29.6274 23.3625L25.2959 25.8552C24.7063 26.1945 23.9704 25.7689 23.9704 25.0887V20.8751C23.9704 20.1957 24.7046 19.7701 25.2942 20.1076L27.6558 21.4596C28.2454 21.7972 28.9796 21.3715 28.9796 20.6921V18.5223C28.9796 18.208 28.8127 17.9173 28.5413 17.7587L17.6136 11.3753C17.024 11.0309 16.2832 11.4562 16.2832 12.139V14.3047C16.2832 14.6129 16.4436 14.8989 16.7067 15.0595L19.8273 16.9651Z" fill="white"></path><path d="M63.8412 18.5939C63.4308 17.8416 62.8666 17.2689 62.1485 16.8756C61.4304 16.4824 60.5926 16.2858 59.6352 16.2858C58.5751 16.2858 57.6347 16.5251 56.8141 17.0039C55.9934 17.4826 55.3522 18.1665 54.8906 19.0556C54.4289 19.9447 54.1981 20.9705 54.1981 22.1331C54.1981 23.33 54.4289 24.3729 54.8906 25.262C55.3693 26.1511 56.0276 26.835 56.8653 27.3137C57.7031 27.7924 58.6777 28.0318 59.789 28.0318C61.1568 28.0318 62.2767 27.6728 63.1487 26.9547C64.0207 26.2195 64.5935 25.2022 64.867 23.9027H58.7119V21.1586H68.4062V24.2874C68.1669 25.5356 67.6539 26.6896 66.8674 27.7497C66.0809 28.8097 65.0636 29.6646 63.8155 30.3143C62.5845 30.9469 61.1996 31.2633 59.6608 31.2633C57.9339 31.2633 56.3695 30.8786 54.9675 30.1092C53.5826 29.3227 52.4884 28.237 51.6848 26.8521C50.8983 25.4672 50.505 23.8942 50.505 22.1331C50.505 20.3721 50.8983 18.7991 51.6848 17.4142C52.4884 16.0122 53.5826 14.9265 54.9675 14.1571C56.3695 13.3706 57.9254 12.9774 59.6352 12.9774C61.6527 12.9774 63.4052 13.4732 64.8927 14.4649C66.3802 15.4394 67.406 16.8158 67.9702 18.5939H63.8412ZM77.3716 31.3402C76.0038 31.3402 74.7728 31.041 73.6786 30.4426C72.5843 29.8271 71.7209 28.9636 71.0883 27.8523C70.4728 26.7409 70.165 25.4586 70.165 24.0053C70.165 22.552 70.4813 21.2697 71.1139 20.1584C71.7636 19.047 72.6441 18.1921 73.7555 17.5937C74.8668 16.9782 76.1064 16.6705 77.4742 16.6705C78.842 16.6705 80.0816 16.9782 81.1929 17.5937C82.3043 18.1921 83.1763 19.047 83.8089 20.1584C84.4586 21.2697 84.7834 22.552 84.7834 24.0053C84.7834 25.4586 84.45 26.7409 83.7832 27.8523C83.1335 28.9636 82.2444 29.8271 81.116 30.4426C80.0047 31.041 78.7565 31.3402 77.3716 31.3402ZM77.3716 28.2113C78.0213 28.2113 78.6283 28.0575 79.1925 27.7497C79.7738 27.4248 80.2355 26.9461 80.5774 26.3135C80.9194 25.6809 81.0904 24.9115 81.0904 24.0053C81.0904 22.6546 80.7313 21.6202 80.0132 20.9021C79.3122 20.1669 78.4488 19.7993 77.4229 19.7993C76.3971 19.7993 75.5336 20.1669 74.8326 20.9021C74.1487 21.6202 73.8068 22.6546 73.8068 24.0053C73.8068 25.356 74.1402 26.399 74.807 27.1342C75.4909 27.8523 76.3458 28.2113 77.3716 28.2113ZM98.3426 20.4405V23.4668H87.4685V20.4405H98.3426ZM105.96 16.1062V20.5944H111.987V23.4411H105.96V28.1857H112.756V31.1094H102.369V13.1826H112.756V16.1062H105.96ZM135.536 13.2082V31.1094H131.945V19.4659L127.149 31.1094H124.431L119.609 19.4659V31.1094H116.019V13.2082H120.097L125.79 26.5187L131.484 13.2082H135.536ZM145.266 31.2889C144.018 31.2889 142.89 31.0752 141.881 30.6477C140.889 30.2203 140.103 29.6048 139.522 28.8012C138.94 27.9976 138.641 27.0487 138.624 25.9545H142.471C142.522 26.6896 142.779 27.271 143.24 27.6984C143.719 28.1258 144.369 28.3396 145.189 28.3396C146.027 28.3396 146.686 28.1429 147.164 27.7497C147.643 27.3394 147.882 26.8093 147.882 26.1596C147.882 25.6296 147.72 25.1936 147.395 24.8517C147.07 24.5097 146.66 24.2447 146.164 24.0566C145.685 23.8514 145.019 23.6292 144.164 23.3898C143.001 23.0479 142.052 22.7145 141.317 22.3896C140.599 22.0477 139.975 21.5433 139.445 20.8765C138.932 20.1926 138.675 19.2864 138.675 18.158C138.675 17.0979 138.94 16.1746 139.47 15.3881C140 14.6017 140.744 14.0032 141.702 13.5929C142.659 13.1655 143.753 12.9517 144.984 12.9517C146.831 12.9517 148.327 13.4048 149.472 14.311C150.635 15.2001 151.276 16.4482 151.396 18.0554H147.446C147.412 17.4399 147.147 16.9355 146.651 16.5422C146.173 16.1319 145.531 15.9267 144.728 15.9267C144.027 15.9267 143.463 16.1062 143.035 16.4653C142.625 16.8243 142.42 17.3458 142.42 18.0297C142.42 18.5085 142.574 18.9102 142.881 19.2351C143.206 19.5429 143.599 19.7993 144.061 20.0045C144.54 20.1926 145.207 20.4148 146.061 20.6713C147.224 21.0132 148.173 21.3552 148.908 21.6972C149.643 22.0391 150.276 22.552 150.806 23.2359C151.336 23.9198 151.601 24.8175 151.601 25.9288C151.601 26.8863 151.353 27.7753 150.857 28.596C150.361 29.4167 149.635 30.075 148.677 30.5708C147.72 31.0495 146.583 31.2889 145.266 31.2889Z" fill="black"></path><defs><linearGradient id="paint0_linear_2315_698" x1="0" y1="22.1092" x2="40.7639" y2="22.1092" gradientUnits="userSpaceOnUse"><stop stop-color="#4165C4"></stop><stop offset="1" stop-color="#8E1FD2"></stop></linearGradient></defs></svg>