<svg width="318" height="218" viewBox="0 0 318 218" fill="none" xmlns="http://www.w3.org/2000/svg">
<g filter="url(#filter0_d_2590_543)">
<rect x="65" y="63" width="190" height="90" rx="15" fill="white"/>
<path d="M99.355 87.0703C101.847 85.6432 104.917 85.6432 107.409 87.0703L119.737 94.1305C122.229 95.5576 123.764 98.1949 123.764 101.049V115.169C123.764 118.024 122.229 120.661 119.737 122.088L107.409 129.148C104.917 130.575 101.847 130.575 99.355 129.148L87.0269 122.088C84.535 120.661 83 118.024 83 115.169V101.049C83 98.1949 84.535 95.5576 87.0269 94.1305L99.355 87.0703Z" fill="url(#paint0_linear_2590_543)"/>
<path d="M102.827 102.966C103.09 103.126 103.251 103.412 103.251 103.72V117.444C103.251 117.762 103.08 118.056 102.804 118.213L98.3239 120.765C97.7344 121.101 97.0018 120.675 97.0018 119.997V106.685L93.4933 104.761C93.2102 104.606 93.0342 104.309 93.0342 103.986V99.2917C93.0342 98.9721 93.2067 98.6773 93.4854 98.5207L98.844 95.5104C99.1163 95.3574 99.449 95.3594 99.7194 95.5155L112.628 102.969C112.902 103.127 113.071 103.419 113.071 103.735V108.597C113.071 108.913 112.902 109.205 112.627 109.363L108.296 111.856C107.706 112.195 106.97 111.769 106.97 111.089V106.876C106.97 106.196 107.705 105.771 108.294 106.108L110.656 107.46C111.245 107.798 111.98 107.372 111.98 106.693V104.523C111.98 104.208 111.813 103.918 111.541 103.759L100.614 97.3758C100.024 97.0314 99.2832 97.4567 99.2832 98.1394V100.305C99.2832 100.613 99.4436 100.899 99.7067 101.06L102.827 102.966Z" fill="white"/>
<path d="M146.841 104.594C146.431 103.842 145.867 103.269 145.149 102.876C144.43 102.482 143.593 102.286 142.635 102.286C141.575 102.286 140.635 102.525 139.814 103.004C138.993 103.483 138.352 104.167 137.891 105.056C137.429 105.945 137.198 106.971 137.198 108.133C137.198 109.33 137.429 110.373 137.891 111.262C138.369 112.151 139.028 112.835 139.865 113.314C140.703 113.792 141.678 114.032 142.789 114.032C144.157 114.032 145.277 113.673 146.149 112.955C147.021 112.219 147.593 111.202 147.867 109.903H141.712V107.159H151.406V110.287C151.167 111.536 150.654 112.69 149.867 113.75C149.081 114.81 148.064 115.665 146.816 116.314C145.584 116.947 144.2 117.263 142.661 117.263C140.934 117.263 139.37 116.879 137.968 116.109C136.583 115.323 135.488 114.237 134.685 112.852C133.898 111.467 133.505 109.894 133.505 108.133C133.505 106.372 133.898 104.799 134.685 103.414C135.488 102.012 136.583 100.927 137.968 100.157C139.37 99.3706 140.925 98.9774 142.635 98.9774C144.653 98.9774 146.405 99.4732 147.893 100.465C149.38 101.439 150.406 102.816 150.97 104.594H146.841ZM160.372 117.34C159.004 117.34 157.773 117.041 156.679 116.443C155.584 115.827 154.721 114.964 154.088 113.852C153.473 112.741 153.165 111.459 153.165 110.005C153.165 108.552 153.481 107.27 154.114 106.158C154.764 105.047 155.644 104.192 156.755 103.594C157.867 102.978 159.106 102.67 160.474 102.67C161.842 102.67 163.082 102.978 164.193 103.594C165.304 104.192 166.176 105.047 166.809 106.158C167.459 107.27 167.783 108.552 167.783 110.005C167.783 111.459 167.45 112.741 166.783 113.852C166.134 114.964 165.244 115.827 164.116 116.443C163.005 117.041 161.757 117.34 160.372 117.34ZM160.372 114.211C161.021 114.211 161.628 114.057 162.193 113.75C162.774 113.425 163.235 112.946 163.577 112.314C163.919 111.681 164.09 110.911 164.09 110.005C164.09 108.655 163.731 107.62 163.013 106.902C162.312 106.167 161.449 105.799 160.423 105.799C159.397 105.799 158.534 106.167 157.833 106.902C157.149 107.62 156.807 108.655 156.807 110.005C156.807 111.356 157.14 112.399 157.807 113.134C158.491 113.852 159.346 114.211 160.372 114.211ZM181.343 106.44V109.467H170.468V106.44H181.343ZM188.96 102.106V106.594H194.987V109.441H188.96V114.186H195.756V117.109H185.369V99.1826H195.756V102.106H188.96ZM218.536 99.2082V117.109H214.945V105.466L210.149 117.109H207.431L202.609 105.466V117.109H199.019V99.2082H203.097L208.79 112.519L214.484 99.2082H218.536ZM235.14 104.748C235.14 105.705 234.909 106.603 234.447 107.441C234.003 108.278 233.293 108.954 232.319 109.467C231.361 109.98 230.147 110.236 228.677 110.236H225.676V117.109H222.086V99.2082H228.677C230.062 99.2082 231.241 99.4476 232.216 99.9263C233.191 100.405 233.917 101.063 234.396 101.901C234.892 102.739 235.14 103.688 235.14 104.748ZM228.523 107.338C229.515 107.338 230.25 107.116 230.728 106.671C231.207 106.21 231.447 105.569 231.447 104.748C231.447 103.004 230.472 102.132 228.523 102.132H225.676V107.338H228.523Z" fill="black"/>
</g>
<defs>
<filter id="filter0_d_2590_543" x="0" y="0" width="318" height="218" filterUnits="userSpaceOnUse" color-interpolation-filters="sRGB">
<feFlood flood-opacity="0" result="BackgroundImageFix"/>
<feColorMatrix in="SourceAlpha" type="matrix" values="0 0 0 0 0 0 0 0 0 0 0 0 0 0 0 0 0 0 127 0" result="hardAlpha"/>
<feMorphology radius="5" operator="erode" in="SourceAlpha" result="effect1_dropShadow_2590_543"/>
<feOffset dx="-1" dy="1"/>
<feGaussianBlur stdDeviation="34.5"/>
<feComposite in2="hardAlpha" operator="out"/>
<feColorMatrix type="matrix" values="0 0 0 0 0.888831 0 0 0 0 0.919136 0 0 0 0 0.938461 0 0 0 1 0"/>
<feBlend mode="normal" in2="BackgroundImageFix" result="effect1_dropShadow_2590_543"/>
<feBlend mode="normal" in="SourceGraphic" in2="effect1_dropShadow_2590_543" result="shape"/>
</filter>
<linearGradient id="paint0_linear_2590_543" x1="83" y1="108.109" x2="123.764" y2="108.109" gradientUnits="userSpaceOnUse">
<stop stop-color="#4165C4"/>
<stop offset="1" stop-color="#8E1FD2"/>
</linearGradient>
</defs>
</svg>
