<svg xmlns="http://www.w3.org/2000/svg" width="145" height="16" viewBox="0 0 145 16" fill="none"><path d="M10.1323 5.67878C10.0557 5.39489 9.94308 5.14479 9.79438 4.92849C9.64567 4.70768 9.46317 4.52067 9.24687 4.36746C9.03056 4.21424 8.78272 4.09933 8.50333 4.02273C8.22394 3.94161 7.91752 3.90106 7.58405 3.90106C6.91262 3.90106 6.33131 4.06328 5.84013 4.38773C5.35345 4.71219 4.97717 5.18534 4.71131 5.80721C4.44544 6.42457 4.3125 7.17486 4.3125 8.05809C4.3125 8.94583 4.44093 9.70288 4.69779 10.3293C4.95464 10.9556 5.32641 11.4333 5.81309 11.7622C6.29977 12.0912 6.89009 12.2557 7.58405 12.2557C8.1969 12.2557 8.71513 12.1565 9.13872 11.9583C9.56681 11.7555 9.89126 11.4693 10.1121 11.0998C10.3329 10.7303 10.4433 10.2955 10.4433 9.79526L11.0651 9.86961H7.69896V7.42947H13.6675V9.26127C13.6675 10.5005 13.4039 11.5617 12.8767 12.4449C12.3539 13.3282 11.6329 14.0064 10.7137 14.4795C9.79888 14.9527 8.74667 15.1893 7.55701 15.1893C6.23668 15.1893 5.07631 14.9031 4.07592 14.3308C3.07553 13.7585 2.29594 12.9429 1.73717 11.8839C1.17839 10.8204 0.899001 9.55868 0.899001 8.09865C0.899001 6.96307 1.06799 5.95592 1.40596 5.07719C1.74393 4.19397 2.21483 3.44592 2.81867 2.83307C3.42702 2.22022 4.13 1.75607 4.92761 1.44063C5.72972 1.1252 6.59267 0.967476 7.51646 0.967476C8.31857 0.967476 9.06436 1.08239 9.75382 1.31221C10.4478 1.54203 11.0606 1.86648 11.5924 2.28556C12.1286 2.70464 12.5635 3.20259 12.8969 3.77939C13.2304 4.35619 13.4377 4.98932 13.5188 5.67878H10.1323ZM28.7055 8.07837C28.7055 9.60149 28.4126 10.8925 27.8268 11.9515C27.241 13.0105 26.4479 13.8149 25.4475 14.3646C24.4516 14.9144 23.334 15.1893 22.0948 15.1893C20.8511 15.1893 19.7313 14.9121 18.7354 14.3579C17.7395 13.8036 16.9486 12.9992 16.3628 11.9447C15.7815 10.8858 15.4909 9.59698 15.4909 8.07837C15.4909 6.55525 15.7815 5.2642 16.3628 4.20523C16.9486 3.14626 17.7395 2.34189 18.7354 1.79212C19.7313 1.24236 20.8511 0.967476 22.0948 0.967476C23.334 0.967476 24.4516 1.24236 25.4475 1.79212C26.4479 2.34189 27.241 3.14626 27.8268 4.20523C28.4126 5.2642 28.7055 6.55525 28.7055 8.07837ZM25.2852 8.07837C25.2852 7.17712 25.1568 6.41556 24.9 5.79369C24.6476 5.17183 24.2826 4.70092 23.8049 4.38097C23.3318 4.06103 22.7617 3.90106 22.0948 3.90106C21.4324 3.90106 20.8623 4.06103 20.3847 4.38097C19.907 4.70092 19.5397 5.17183 19.2829 5.79369C19.0305 6.41556 18.9044 7.17712 18.9044 8.07837C18.9044 8.97962 19.0305 9.74118 19.2829 10.363C19.5397 10.9849 19.907 11.4558 20.3847 11.7758C20.8623 12.0957 21.4324 12.2557 22.0948 12.2557C22.7617 12.2557 23.3318 12.0957 23.8049 11.7758C24.2826 11.4558 24.6476 10.9849 24.9 10.363C25.1568 9.74118 25.2852 8.97962 25.2852 8.07837ZM37.3035 6.8076V9.34914H30.8955V6.8076H37.3035ZM52.2029 6.17222H48.8232C48.7781 5.82523 48.6857 5.51205 48.546 5.23266C48.4063 4.95327 48.2216 4.71444 47.9918 4.51616C47.762 4.31789 47.4893 4.16693 47.1739 4.06328C46.863 3.95513 46.5182 3.90106 46.1397 3.90106C45.4683 3.90106 44.8892 4.06554 44.4025 4.39449C43.9204 4.72345 43.5486 5.19886 43.2872 5.82073C43.0304 6.44259 42.9019 7.19514 42.9019 8.07837C42.9019 8.99765 43.0326 9.76822 43.294 10.3901C43.5599 11.0074 43.9316 11.4738 44.4093 11.7893C44.8915 12.1002 45.4615 12.2557 46.1194 12.2557C46.4889 12.2557 46.8246 12.2084 47.1266 12.1137C47.433 12.0191 47.7011 11.8817 47.9309 11.7014C48.1653 11.5167 48.3568 11.2936 48.5055 11.0322C48.6587 10.7664 48.7646 10.4667 48.8232 10.1332L52.2029 10.1535C52.1443 10.7664 51.9663 11.3702 51.6689 11.965C51.376 12.5599 50.9727 13.1029 50.459 13.594C49.9452 14.0807 49.3189 14.4683 48.5798 14.7567C47.8453 15.0451 47.0026 15.1893 46.0518 15.1893C44.7991 15.1893 43.677 14.9144 42.6856 14.3646C41.6988 13.8103 40.9192 13.0037 40.3469 11.9447C39.7746 10.8858 39.4884 9.59698 39.4884 8.07837C39.4884 6.55525 39.7791 5.2642 40.3604 4.20523C40.9417 3.14626 41.7281 2.34189 42.7194 1.79212C43.7108 1.24236 44.8216 0.967476 46.0518 0.967476C46.89 0.967476 47.6651 1.08464 48.3771 1.31897C49.089 1.54878 49.7154 1.88675 50.2562 2.33288C50.7969 2.77449 51.2363 3.3175 51.5743 3.96189C51.9122 4.60629 52.1218 5.34306 52.2029 6.17222ZM56.7587 15H53.1627L57.8335 1.15674H62.2879L66.9587 15H63.3627L60.1114 4.64459H60.0032L56.7587 15ZM56.2788 9.55192H63.7953V12.0935H56.2788V9.55192ZM68.4491 15V1.15674H74.1676C75.204 1.15674 76.0985 1.34375 76.851 1.71777C77.6081 2.08728 78.1917 2.61902 78.6017 3.31299C79.0118 4.00245 79.2168 4.82034 79.2168 5.76665C79.2168 6.72649 79.0073 7.54212 78.5882 8.21356C78.1691 8.88049 77.5743 9.38969 76.8037 9.74118C76.0332 10.0882 75.1206 10.2617 74.0662 10.2617H70.4499V7.62549H73.4443C73.949 7.62549 74.3703 7.56015 74.7083 7.42947C75.0508 7.29428 75.3099 7.0915 75.4856 6.82112C75.6614 6.54624 75.7493 6.19475 75.7493 5.76665C75.7493 5.33856 75.6614 4.98482 75.4856 4.70543C75.3099 4.42153 75.0508 4.20974 74.7083 4.07004C74.3658 3.92584 73.9445 3.85374 73.4443 3.85374H71.795V15H68.4491ZM76.2427 8.6732L79.69 15H76.0399L72.6602 8.6732H76.2427ZM88.5347 5.30701C88.4896 4.81132 88.2891 4.42604 87.9331 4.15116C87.5816 3.87177 87.0792 3.73207 86.4257 3.73207C85.9931 3.73207 85.6326 3.7884 85.3442 3.90106C85.0558 4.01371 84.8395 4.16918 84.6953 4.36746C84.5511 4.56123 84.4768 4.78429 84.4723 5.03664C84.4633 5.24393 84.5038 5.42643 84.5939 5.58415C84.6886 5.74187 84.8238 5.88156 84.9995 6.00323C85.1798 6.1204 85.3961 6.22404 85.6484 6.31417C85.9008 6.40429 86.1847 6.48315 86.5001 6.55074L87.6898 6.82112C88.3747 6.96983 88.9785 7.1681 89.5013 7.41595C90.0285 7.66379 90.4701 7.95895 90.8261 8.30143C91.1866 8.64391 91.4592 9.0382 91.644 9.48433C91.8288 9.93045 91.9234 10.4306 91.9279 10.9849C91.9234 11.8591 91.7026 12.6094 91.2655 13.2358C90.8284 13.8622 90.1997 14.3421 89.3796 14.6755C88.564 15.009 87.5794 15.1757 86.4257 15.1757C85.2676 15.1757 84.2582 15.0023 83.3975 14.6553C82.5368 14.3083 81.8677 13.7811 81.39 13.0736C80.9123 12.3661 80.6667 11.4716 80.6532 10.3901H83.8572C83.8842 10.8362 84.0036 11.208 84.2154 11.5054C84.4272 11.8028 84.7179 12.0281 85.0874 12.1813C85.4614 12.3345 85.894 12.4111 86.3852 12.4111C86.8358 12.4111 87.2188 12.3503 87.5343 12.2286C87.8542 12.107 88.0998 11.938 88.2711 11.7217C88.4423 11.5054 88.5302 11.2575 88.5347 10.9782C88.5302 10.7168 88.4491 10.4937 88.2913 10.309C88.1336 10.1197 87.8903 9.95748 87.5613 9.8223C87.2369 9.6826 86.8223 9.55417 86.3176 9.43701L84.8711 9.09904C83.6724 8.82416 82.7284 8.38029 82.0389 7.76744C81.3494 7.15008 81.007 6.31642 81.0115 5.26646C81.007 4.41027 81.2368 3.65997 81.7009 3.01558C82.1651 2.37118 82.8072 1.86873 83.6274 1.50823C84.4475 1.14773 85.3825 0.967476 86.4325 0.967476C87.505 0.967476 88.4355 1.14998 89.2241 1.51499C90.0172 1.87549 90.6323 2.38244 91.0695 3.03585C91.5066 3.68926 91.7296 4.44632 91.7386 5.30701H88.5347ZM93.6178 15V1.15674H96.9637V6.71297H102.418V1.15674H105.758V15H102.418V9.43701H96.9637V15H93.6178ZM110.851 15H107.255L111.926 1.15674H116.38L121.051 15H117.455L114.204 4.64459H114.095L110.851 15ZM110.371 9.55192H117.887V12.0935H110.371V9.55192ZM122.541 15V1.15674H128.26C129.296 1.15674 130.191 1.34375 130.943 1.71777C131.7 2.08728 132.284 2.61902 132.694 3.31299C133.104 4.00245 133.309 4.82034 133.309 5.76665C133.309 6.72649 133.099 7.54212 132.68 8.21356C132.261 8.88049 131.666 9.38969 130.896 9.74118C130.125 10.0882 129.213 10.2617 128.158 10.2617H124.542V7.62549H127.536C128.041 7.62549 128.462 7.56015 128.8 7.42947C129.143 7.29428 129.402 7.0915 129.578 6.82112C129.754 6.54624 129.841 6.19475 129.841 5.76665C129.841 5.33856 129.754 4.98482 129.578 4.70543C129.402 4.42153 129.143 4.20974 128.8 4.07004C128.458 3.92584 128.037 3.85374 127.536 3.85374H125.887V15H122.541ZM130.335 8.6732L133.782 15H130.132L126.752 8.6732H130.335ZM135.144 15V1.15674H144.797V3.87402H138.49V6.71297H144.303V9.43701H138.49V12.2827H144.797V15H135.144Z" fill="black"></path></svg>