<svg xmlns="http://www.w3.org/2000/svg" width="145" height="43" viewBox="0 0 145 43" fill="none"><path d="M26.6809 15.6151C26.4641 14.8115 26.1452 14.1035 25.7243 13.4913C25.3033 12.8662 24.7867 12.3369 24.1745 11.9032C23.5622 11.4695 22.8606 11.1442 22.0698 10.9274C21.2789 10.6978 20.4116 10.583 19.4677 10.583C17.5671 10.583 15.9216 11.0422 14.5312 11.9606C13.1536 12.879 12.0885 14.2183 11.336 15.9786C10.5834 17.7261 10.2071 19.8499 10.2071 22.35C10.2071 24.8629 10.5706 27.0058 11.2977 28.7788C12.0248 30.5519 13.0771 31.904 14.4547 32.8351C15.8323 33.7663 17.5033 34.2318 19.4677 34.2318C21.2024 34.2318 22.6693 33.9512 23.8683 33.39C25.0801 32.816 25.9985 32.006 26.6235 30.96C27.2486 29.9141 27.5611 28.6832 27.5611 27.2673L29.3213 27.4778H19.7929V20.5706H36.6877V25.7558C36.6877 29.2635 35.9415 32.2675 34.4491 34.7676C32.9694 37.2677 30.9285 39.1874 28.3264 40.5267C25.737 41.8661 22.7586 42.5357 19.3911 42.5357C15.6537 42.5357 12.3692 41.7258 9.53743 40.1058C6.70569 38.4858 4.49897 36.1771 2.91728 33.1795C1.33559 30.1692 0.544739 26.5976 0.544739 22.4648C0.544739 19.2504 1.02307 16.3995 1.97974 13.9122C2.93641 11.4121 4.26937 9.29468 5.97862 7.55992C7.70062 5.82516 9.69049 4.51133 11.9482 3.61844C14.2187 2.72555 16.6614 2.27911 19.2763 2.27911C21.5468 2.27911 23.6579 2.60437 25.6095 3.25491C27.5738 3.90544 29.3086 4.82385 30.8137 6.01012C32.3317 7.19638 33.5626 8.60588 34.5065 10.2386C35.4504 11.8713 36.0372 13.6635 36.2668 15.6151H26.6809ZM42.2699 42V12.6111H51.3582V17.9685H51.6643C52.2001 16.0296 53.0738 14.5882 54.2856 13.6443C55.4974 12.6877 56.9069 12.2093 58.5141 12.2093C58.9478 12.2093 59.3942 12.2412 59.8534 12.305C60.3126 12.356 60.7399 12.4389 61.1354 12.5537V20.6854C60.6889 20.5323 60.1022 20.4112 59.3751 20.3219C58.6608 20.2326 58.023 20.1879 57.4618 20.1879C56.352 20.1879 55.3507 20.4367 54.4578 20.9342C53.5777 21.4189 52.8825 22.1013 52.3723 22.9814C51.8748 23.8488 51.6261 24.8692 51.6261 26.0428V42H42.2699ZM64.9477 42V12.6111H74.3039V42H64.9477ZM69.6354 9.18626C68.3215 9.18626 67.1927 8.75257 66.2488 7.88519C65.3048 7.00505 64.8329 5.94634 64.8329 4.70904C64.8329 3.48451 65.3048 2.43855 66.2488 1.57117C67.1927 0.691035 68.3215 0.250967 69.6354 0.250967C70.9619 0.250967 72.0908 0.691035 73.022 1.57117C73.9659 2.43855 74.4378 3.48451 74.4378 4.70904C74.4378 5.94634 73.9659 7.00505 73.022 7.88519C72.0908 8.75257 70.9619 9.18626 69.6354 9.18626ZM80.2592 42V2.81484H89.6154V17.6432H89.8067C90.1894 16.7503 90.7315 15.8893 91.4331 15.0602C92.1474 14.2311 93.053 13.555 94.15 13.0321C95.2597 12.4963 96.5863 12.2285 98.1298 12.2285C100.171 12.2285 102.078 12.7642 103.851 13.8357C105.636 14.9071 107.078 16.559 108.175 18.7912C109.272 21.0234 109.82 23.8679 109.82 27.3247C109.82 30.6539 109.291 33.441 108.232 35.686C107.186 37.931 105.77 39.6147 103.985 40.7372C102.212 41.8597 100.241 42.4209 98.0724 42.4209C96.5927 42.4209 95.3108 42.1786 94.2265 41.6939C93.1423 41.2092 92.2303 40.5714 91.4905 39.7805C90.7634 38.9897 90.2022 38.1414 89.8067 37.2358H89.5197V42H80.2592ZM89.4241 27.3056C89.4241 28.8873 89.6345 30.2649 90.0555 31.4384C90.4892 32.6119 91.1078 33.5239 91.9114 34.1744C92.7278 34.8122 93.7036 35.1311 94.8388 35.1311C95.9868 35.1311 96.9626 34.8122 97.7662 34.1744C98.5698 33.5239 99.1757 32.6119 99.5839 31.4384C100.005 30.2649 100.215 28.8873 100.215 27.3056C100.215 25.7239 100.005 24.3526 99.5839 23.1919C99.1757 22.0311 98.5698 21.1319 97.7662 20.4941C96.9754 19.8563 95.9996 19.5374 94.8388 19.5374C93.6908 19.5374 92.715 19.8499 91.9114 20.4749C91.1078 21.1 90.4892 21.9929 90.0555 23.1536C89.6345 24.3144 89.4241 25.6984 89.4241 27.3056ZM114.723 42V2.81484H124.079V17.6432H124.271C124.653 16.7503 125.196 15.8893 125.897 15.0602C126.611 14.2311 127.517 13.555 128.614 13.0321C129.724 12.4963 131.05 12.2285 132.594 12.2285C134.635 12.2285 136.542 12.7642 138.315 13.8357C140.1 14.9071 141.542 16.559 142.639 18.7912C143.736 21.0234 144.284 23.8679 144.284 27.3247C144.284 30.6539 143.755 33.441 142.696 35.686C141.65 37.931 140.234 39.6147 138.449 40.7372C136.676 41.8597 134.705 42.4209 132.536 42.4209C131.057 42.4209 129.775 42.1786 128.691 41.6939C127.606 41.2092 126.694 40.5714 125.954 39.7805C125.227 38.9897 124.666 38.1414 124.271 37.2358H123.984V42H114.723ZM123.888 27.3056C123.888 28.8873 124.099 30.2649 124.519 31.4384C124.953 32.6119 125.572 33.5239 126.375 34.1744C127.192 34.8122 128.168 35.1311 129.303 35.1311C130.451 35.1311 131.427 34.8122 132.23 34.1744C133.034 33.5239 133.64 32.6119 134.048 31.4384C134.469 30.2649 134.679 28.8873 134.679 27.3056C134.679 25.7239 134.469 24.3526 134.048 23.1919C133.64 22.0311 133.034 21.1319 132.23 20.4941C131.439 19.8563 130.464 19.5374 129.303 19.5374C128.155 19.5374 127.179 19.8499 126.375 20.4749C125.572 21.1 124.953 21.9929 124.519 23.1536C124.099 24.3144 123.888 25.6984 123.888 27.3056Z" fill="#FD5E02"></path></svg>